PathFileType	4	(X/Y/Z)	C:/Users/beibeiliu/ov580/test_trc/User2\sequence.32_training_dense_right.trc
DataRate	CameraRate	NumFrames	NumMarkers	Units	OrigDataRate	OrigDataStartFrame	OrigNumFrames
120	120	24	19	mm	120	42	330
Frame#	Time	ThumbCMC			ThumbMCP			ThumbIP			ThumbTip			IndexMCP			IndexPIP			IndexTip			MiddleMCP			MiddlePIP			MiddleTip			RingMCP			RingPIP			RingTip			PinkyMCP			PinkyPIP			PinkyTip			BackHand1			BackHand2			BackHand3	
		X0	Y0	Z0	X1	Y1	Z1	X2	Y2	Z2	X3	Y3	Z3	X4	Y4	Z4	X5	Y5	Z5	X6	Y6	Z6	X7	Y7	Z7	X8	Y8	Z8	X9	Y9	Z9	X10	Y10	Z10	X11	Y11	Z11	X12	Y12	Z12	X13	Y13	Z13	X14	Y14	Z14	X15	Y15	Z15	X16	Y16	Z16	X17	Y17	Z17	X18	Y18	Z18	
41	0.341667	45.923	-77.4967	65.7585	26.2729	-103.835	54.3401	13.6365	-127.23	29.7553	11.5309	-146.377	8.60906	45.7382	-58.6339	-15.2182	40.8565	-66.9457	-46.9267	35.6663	-91.0437	-65.9	75.3201	-63.504	-33.4386	75.8184	-85.4109	-61.1811	71.2114	-124.182	-66.8096	95.5858	-97.8704	-25.9984	86.0628	-125.583	-23.9218	80.8093	-128.949	15.8085	114.846	-105.801	-7.29756	95.0655	-132.496	7.35323	90.4897	-122.103	34.4277	107.3	-55.3038	27.8568	112.122	-50.6579	56.7674	72.7845	-48.1582	48.3241	
42	0.35	47.2742	-76.8272	63.8197	28.1405	-102.517	52.5655	11.5722	-126.487	28.3426	10.046	-144.626	6.06442	50.1555	-59.0656	-19.6707	44.1354	-66.3055	-46.1648	38.9629	-91.2672	-66.0618	79.0972	-64.1359	-33.93	77.2212	-83.1449	-60.5066	70.1105	-121.74	-68.1291	92.6132	-95.9158	-24.6637	85.7566	-127.114	-22.3997	76.9608	-129.952	11.1096	115.2	-107.149	-8.2754	98.9922	-134.607	3.83821	88.712	-121.757	34.4582	107.649	-56.003	27.6478	114.153	-50.7077	56.1796	73.6835	-48.7556	44.6318	
43	0.358333	45.7511	-74.6887	65.0071	29.256	-99.4749	50.9816	12.6663	-122.131	30.1488	10.9801	-139.571	10.1024	53.7992	-58.6872	-15.7398	42.2733	-66.6801	-50.2133	38.2561	-90.1734	-66.5907	79.0787	-64.7676	-29.0952	73.1153	-84.3146	-61.5284	67.4253	-119.61	-67.9425	94.6295	-95.3681	-24.7375	83.3925	-128.051	-20.6275	80.0279	-130.19	13.1566	114.108	-110.189	-9.58216	94.639	-133.329	4.5488	88.2364	-120.903	33.7394	108.815	-57.2039	27.5795	115.5	-50.1184	56.0338	80.1071	-48.288	47.3073	
44	0.366667	50.7066	-72.4106	61.1407	29.3539	-94.0194	51.7479	11.2189	-116.247	31.4032	6.98422	-134.888	10.4345	53.5356	-55.9587	-20.9696	44.9294	-64.3585	-47.9647	42.2011	-92.7643	-67.3397	79.7725	-65.6871	-32.8763	77.1032	-87.8335	-62.1371	65.6784	-122.961	-66.947	93.3368	-101.388	-26.1784	80.0357	-129.655	-19.1987	76.4075	-128.598	14.8	108.281	-110.768	-7.44571	91.5097	-134.717	8.91569	83.7941	-117.406	32.9548	111.635	-58.5923	21.9906	119.429	-53.3198	58.5535	81.0449	-46.6365	46.9281	
45	0.375	52.8507	-66.4121	61.3498	26.8714	-86.7987	49.4272	4.69089	-106.504	30.951	-1.61825	-126.202	10.4315	60.5855	-56.2625	-18.4964	47.494	-64.714	-48.905	38.6039	-93.739	-66.4349	82.1387	-66.6481	-32.9423	75.3097	-86.7309	-61.1383	62.9845	-124.675	-65.5323	91.6114	-100.523	-22.4466	75.4577	-130.114	-16.4294	69.8172	-126.317	18.27	106.89	-118.737	-6.54727	85.7074	-133.839	9.18134	82.7241	-118.323	39.8949	112.752	-62.2571	24.0125	126.454	-55.0433	56.9449	83.2525	-44.3052	42.551	
46	0.383333	52.6399	-58.8311	60.5478	28.8405	-77.6464	49.341	1.65322	-96.9275	30.2987	-4.48325	-114.181	16.4784	60.6218	-54.7698	-21.3588	53.1138	-66.7351	-50.8669	38.9428	-96.7528	-65.1891	85.742	-71.271	-33.3976	74.1082	-93.1973	-61.6665	57.2368	-126.644	-62.3873	88.872	-104.492	-21.5385	68.5022	-130.453	-12.7221	64.2261	-121.582	21.8902	101.632	-125.231	-3.33836	77.6742	-134.779	20.4461	76.2098	-112.079	39.6018	118.565	-70.3513	19.0108	128.81	-59.5322	50.7099	92.7415	-45.1247	39.7154	
47	0.391667	60.8411	-52.2367	60.0247	27.4372	-67.1266	49.2891	0.431987	-82.0928	34.5183	-7.28799	-102.399	16.3378	64.2608	-54.272	-22.4998	55.8086	-69.8078	-52.8917	34.6614	-91.7919	-62.411	88.0659	-78.07	-35.6516	69.7524	-100.806	-60.9434	44.3731	-128.09	-57.8368	85.0011	-109.617	-18.7502	61.0468	-131.815	-5.50038	57.8559	-116.949	24.9425	92.3215	-126.745	2.05622	66.9867	-128.87	21.7902	69.4039	-106.428	43.06	121.523	-74.081	20.9653	130.315	-62.3099	53.5506	98.3568	-44.0451	40.5382	
48	0.4	62.1934	-43.5184	56.26	29.636	-55.0065	48.8621	-0.348479	-68.5075	32.5009	-12.827	-86.3209	20.5524	69.4276	-57.9386	-30.9201	54.6977	-66.7047	-53.1393	34.5184	-92.3228	-59.8308	86.0442	-83.983	-35.9933	64.2201	-102.657	-57.7293	33.9562	-125.757	-51.381	75.0168	-111.695	-17.1397	50.6319	-126.918	-4.30946	53.2451	-107.755	31.9563	83.3017	-127.574	7.42464	57.6137	-127.364	30.3933	64.3264	-100.081	45.3922	119.862	-80.6967	22.7506	132.272	-69.9942	49.5862	103.235	-44.953	35.6347	
49	0.408333	67.857	-38.6086	50.4244	31.3635	-45.8015	41.2259	1.68139	-52.8	33.2116	-13.5313	-73.6109	18.0035	72.2061	-59.8051	-29.1354	52.7731	-73.6299	-55.3965	25.8702	-91.9839	-56.7882	82.2094	-83.6641	-32.9583	56.8695	-109.669	-54.3881	25.7285	-121.557	-45.8349	67.3239	-115.607	-12.8976	39.2691	-118.74	-0.836054	45.2918	-98.9178	33.3282	72.4803	-124.012	10.0603	48.144	-118.824	33.9345	58.6405	-93.4955	47.666	116.306	-86.3421	20.7243	128.099	-73.9777	49.7543	108.644	-47.1063	32.2524	
50	0.416667	69.1915	-30.414	46.3068	33.8114	-33.7516	42.0011	4.51352	-40.3797	31.4774	-14.5306	-60.575	16.219	73.091	-57.7325	-33.2776	52.2992	-69.6625	-56.2815	23.6691	-84.0531	-55.8782	77.2256	-87.6351	-36.8605	51.3355	-102.71	-52.5362	17.092	-117.419	-40.9606	59.9878	-113.089	-10.1732	31.9629	-112.51	3.10474	41.4371	-91.6822	35.5113	61.3958	-120.771	13.9829	39.1446	-106.116	32.8489	58.112	-88.4493	51.6341	110.707	-87.2511	18.8428	127.635	-76.9078	48.0589	110.67	-50.1329	31.6527	
51	0.425	75.2797	-23.5099	47.1068	38.9143	-27.8851	37.1465	8.83866	-32.037	29.1623	-11.8658	-49.1042	16.3231	74.5225	-58.5352	-30.6888	53.2319	-68.025	-53.0977	18.9397	-74.8128	-54.5706	75.6089	-85.9805	-31.4713	46.5472	-98.7893	-50.9218	7.01279	-102.484	-41.385	54.7735	-109.102	-6.93847	24.4246	-99.4738	6.70752	38.1247	-82.1246	36.3073	52.4579	-115.296	15.9869	33.8672	-101.812	36.8294	56.9723	-78.0981	51.5434	107.735	-89.4055	20.4663	126.257	-82.4515	51.3341	113.169	-49.1301	28.6226	
52	0.433333	80.5852	-20.6777	42.7568	43.0009	-18.7908	36.963	12.1484	-23.857	25.9111	-10.4336	-35.012	16.8795	71.495	-59.5486	-34.0779	47.6451	-63.6134	-55.37	13.5028	-72.0105	-50.8782	70.9147	-87.8073	-32.8801	40.701	-93.2212	-49.653	2.96842	-96.2813	-37.972	46.4463	-101.628	-7.11781	20.7727	-93.0496	7.29255	35.5916	-73.4329	36.3097	47.7375	-109.659	17.9742	28.624	-89.8591	36.2396	51.8269	-71.8406	50.4899	105.06	-92.5238	23.8885	123.817	-79.2697	53.8451	113.125	-53.2517	28.6705	
53	0.441667	86.8128	-18.5628	41.0388	49.8887	-10.3733	35.0268	18.8645	-10.9174	26.1952	-7.75699	-25.3883	14.0571	72.5354	-57.7922	-31.2063	49.7057	-63.6717	-51.7709	16.1914	-64.9477	-50.3407	67.7253	-83.5781	-30.3838	32.0311	-91.9131	-47.4532	-1.39215	-87.7316	-36.4688	40.0805	-98.6146	-3.63225	16.0883	-85.8537	9.59923	34.6957	-61.5712	34.2407	41.6853	-105.262	22.9718	23.9135	-83.6327	40.7248	48.2087	-63.7276	50.422	102.351	-92.369	27.5855	121.677	-82.194	53.1491	115.904	-52.8604	25.5975	
54	0.45	93.2843	-19.8165	39.987	59.7521	-7.99817	34.5902	25.3109	-2.98454	22.1467	1.52063	-10.9796	17.1515	69.5513	-59.4849	-33.6611	43.6809	-59.3654	-53.3154	14.3046	-56.1788	-51.1233	61.6275	-84.1824	-29.0842	26.1329	-86.1001	-44.1946	-4.08776	-74.8406	-36.3317	35.0317	-88.7941	-0.70603	12.4882	-75.8005	14.3276	31.4979	-54.3975	36.6745	32.8295	-94.8278	26.1605	23.7867	-68.6688	43.0215	54.2917	-56.7528	55.0278	95.4788	-90.5016	26.6777	118.578	-85.3204	55.1509	115.439	-56.8372	22.7199	
55	0.458333	98.8563	-20.5972	37.411	65.9616	-4.98071	29.5121	36.2025	6.44673	21.9343	8.09276	-2.8416	14.9438	70.1373	-56.5514	-32.5123	44.3768	-57.8494	-50.6577	15.2898	-50.0156	-50.8954	57.7085	-83.1132	-25.3304	24.3367	-81.707	-40.5508	-10.1968	-65.5327	-30.7754	32.9287	-85.3929	5.35528	13.273	-59.5458	15.7017	34.5546	-46.2974	41.6486	31.7571	-87.1973	29.6987	23.6568	-58.4843	47.9353	53.9041	-48.3157	53.2837	91.7721	-92.8925	28.5864	115.871	-86.3442	56.5576	116.124	-57.7896	22.668	
56	0.466667	104.534	-20.3096	35.33	73.5818	0.69019	28.8109	43.8448	11.4176	18.6067	16.7911	9.4068	13.4918	68.8611	-57.4049	-30.8886	47.7114	-53.1575	-50.2107	14.6367	-41.6586	-51.3916	54.806	-80.7533	-22.247	21.9834	-79.0546	-35.589	-9.57377	-58.0726	-29.4569	31.8656	-75.5023	6.3183	11.319	-53.3742	21.4732	35.9784	-39.543	43.0234	29.688	-77.574	31.085	24.4261	-49.8686	49.9015	56.3978	-46.298	58.7478	88.7035	-91.6968	33.4727	114.044	-87.9692	56.1109	114.583	-62.8061	24.5761	
57	0.475	110.302	-19.1175	35.3369	80.4762	4.69924	25.4529	50.625	21.1522	15.0786	27.9012	18.7786	13.7953	71.204	-52.8721	-29.5835	45.3236	-50.6468	-49.6679	14.5811	-35.4887	-48.9481	49.7737	-77.5533	-18.5593	15.6929	-70.063	-34.126	-11.8118	-49.7318	-25.4075	28.6574	-70.2426	11.2399	12.3357	-44.1938	22.1504	41.6794	-28.8878	40.913	24.6044	-70.0526	36.2574	27.6011	-40.2914	47.5688	62.1394	-39.0667	57.4098	87.7867	-87.5684	32.547	109.57	-88.4984	55.1968	114.19	-64.2274	25.1822	
58	0.483333	112.756	-19.4094	33.0611	90.6256	8.58532	27.4859	64.6759	28.6133	16.5768	34.8619	27.3233	13.1788	68.7251	-50.1327	-26.8642	44.7604	-41.893	-50.1437	17.8613	-25.7116	-49.4432	48.0249	-70.962	-15.4321	10.4839	-62.5013	-28.7302	-13.6881	-34.3025	-24.4869	28.3578	-59.1942	10.2239	14.1946	-33.919	26.7408	41.7882	-21.4392	42.8339	24.7991	-61.6941	39.3039	29.5369	-30.8929	51.8749	62.2349	-31.1212	59.7078	82.7099	-85.2527	37.6639	110.13	-87.2518	60.1879	114.887	-63.7877	26.7467	
59	0.491667	115.451	-20.3422	34.3156	96.9627	11.8058	25.2601	66.9547	27.0416	16.2724	42.814	33.596	13.7061	69.6574	-45.6551	-27.4466	44.4881	-40.0889	-46.2552	15.8192	-22.4669	-46.7531	42.3887	-66.3518	-15.6311	9.77776	-55.3264	-27.7029	-13.3394	-30.2969	-22.4535	24.1299	-54.9323	14.3432	13.3421	-26.66	27.5365	42.0665	-17.0479	46.194	24.4389	-56.6496	42.329	29.2015	-25.0514	54.7233	60.6083	-26.6886	57.8145	77.3436	-81.5669	35.2216	107.188	-86.678	60.4357	113.39	-65.3876	28.0203	
60	0.5	120.477	-17.7399	34.5934	98.3603	8.74556	26.475	73.7928	31.9326	15.7113	46.2182	40.2597	11.6633	65.3163	-45.9722	-26.9226	41.5172	-33.6469	-47.0031	16.4948	-13.462	-48.6821	44.7067	-61.761	-13.1424	12.7672	-48.8781	-27.7786	-16.2964	-19.9983	-18.6688	20.6972	-47.9671	16.2026	14.6771	-21.3534	28.0274	44.8912	-12.2992	47.0954	23.4875	-50.428	45.5457	33.8252	-17.9301	51.7004	61.5502	-21.9114	62.0299	75.3347	-81.1519	38.5726	103.31	-85.8526	60.9685	109.587	-64.722	26.0514	
61	0.508333	117.844	-17.0922	33.0247	103.617	15.1722	26.5135	76.6362	37.4961	15.2569	50.6007	41.1388	13.9732	67.849	-40.9542	-23.0442	39.4065	-32.0849	-43.1593	19.7882	-10.1987	-47.2032	40.9195	-57.9961	-8.16748	9.75695	-41.8938	-26.5839	-12.439	-13.7472	-21.024	23.8166	-41.9084	15.7971	14.4053	-15.2292	25.8293	43.9081	-5.65696	47.1131	22.8739	-41.3081	43.1112	30.1977	-13.865	55.2172	66.522	-18.35	59.5505	71.924	-75.9657	40.1607	99.891	-82.7566	61.8005	110.518	-60.5679	26.6603	
62	0.516667	119.98	-14.6932	34.4404	103.224	15.9489	27.853	76.879	40.3255	14.8314	53.0539	48.0521	12.8076	63.8441	-37.4624	-19.4259	40.6326	-28.3729	-38.5583	17.7627	-3.38122	-45.6314	35.6437	-53.0364	-10.5665	8.87788	-36.2105	-23.5057	-15.5485	-5.93004	-15.8779	21.9877	-38.6761	21.1231	16.9426	-5.63442	28.7316	48.7858	-1.07896	49.8322	21.2383	-38.5919	48.7677	32.6855	-6.6872	56.1828	65.1667	-13.9863	59.0677	72.913	-72.0052	43.0143	98.5098	-81.2177	65.7659	105.848	-57.7411	29.461	
63	0.525	118.81	-11.3322	35.7104	103.335	18.7761	28.6328	81.5095	44.1773	17.0559	52.9382	53.5553	13.6673	61.2157	-32.6907	-17.6413	40.5343	-18.6007	-41.6047	14.4367	2.02118	-40.4098	35.4035	-46.5193	-5.72554	7.97171	-31.383	-18.879	-17.9674	1.60045	-12.0785	20.9632	-33.6812	23.9596	13.869	-3.48995	33.5231	43.8832	3.63365	51.2728	20.4108	-33.4094	50.6608	29.0112	-3.44105	56.195	61.8015	-6.17712	63.9127	68.3753	-69.1052	42.1721	97.3053	-76.6722	66.9435	105.561	-53.251	30.1847	
64	0.533333	121.291	-11.3019	42.5212	104.593	23.4011	29.1335	85.8948	48.3717	21.5113	56.5426	56.9874	16.9845	64.0041	-25.9122	-16.888	37.7595	-11.0907	-38.7271	14.2753	9.509	-38.0666	35.6817	-38.5413	-6.5147	4.26789	-23.2974	-15.0764	-15.0815	7.87334	-12.6586	19.5978	-26.7879	24.7442	13.7708	5.54791	38.1368	42.9445	10.8748	51.9067	19.5728	-26.395	50.6686	29.6206	3.85678	60.8701	60.3155	-0.873343	69.2772	64.5308	-64.2309	45.0886	93.1997	-74.4423	67.7265	103.433	-51.7492	34.891	
